<mxfile host="app.diagrams.net" modified="2024-02-11T07:07:45.853Z" agent="Mozilla/5.0 (Windows NT 10.0; Win64; x64) AppleWebKit/537.36 (KHTML, like Gecko) Chrome/121.0.0.0 Safari/537.36" etag="FX6ezirPaUz_HdRfqGi1" version="23.1.2" type="gitlab">
  <diagram name="Page-1" id="03018318-947c-dd8e-b7a3-06fadd420f32">
    <mxGraphModel dx="1235" dy="655" grid="1" gridSize="10" guides="1" tooltips="1" connect="1" arrows="1" fold="1" page="1" pageScale="1" pageWidth="1100" pageHeight="850" background="#ffffff" math="0" shadow="0">
      <root>
        <mxCell id="0" />
        <mxCell id="1" parent="0" />
        <mxCell id="rB62w4w6sOAK7SjoI9b3-1" value="" style="whiteSpace=wrap;html=1;rounded=0;shadow=0;labelBackgroundColor=none;strokeColor=#000000;strokeWidth=1;fillColor=none;fontFamily=Verdana;fontSize=12;fontColor=#000000;align=center;comic=1;" parent="1" vertex="1">
          <mxGeometry x="20" y="20" width="1060" height="810" as="geometry" />
        </mxCell>
        <mxCell id="rB62w4w6sOAK7SjoI9b3-2" value="LOGO" style="whiteSpace=wrap;html=1;rounded=0;shadow=0;labelBackgroundColor=none;strokeWidth=1;fontFamily=Verdana;fontSize=28;align=center;comic=1;" parent="1" vertex="1">
          <mxGeometry x="457" y="180" width="190" height="50" as="geometry" />
        </mxCell>
        <mxCell id="rB62w4w6sOAK7SjoI9b3-3" value="" style="line;strokeWidth=1;html=1;rounded=0;shadow=0;labelBackgroundColor=none;fillColor=none;fontFamily=Verdana;fontSize=14;fontColor=#000000;align=center;comic=1;" parent="1" vertex="1">
          <mxGeometry x="20" y="140" width="1060" height="10" as="geometry" />
        </mxCell>
        <mxCell id="rB62w4w6sOAK7SjoI9b3-4" value="" style="whiteSpace=wrap;html=1;rounded=0;shadow=0;labelBackgroundColor=none;strokeWidth=1;fillColor=none;fontFamily=Verdana;fontSize=12;align=center;comic=1;" parent="1" vertex="1">
          <mxGeometry x="30" y="30" width="1040" height="50" as="geometry" />
        </mxCell>
        <mxCell id="rB62w4w6sOAK7SjoI9b3-5" value="Home" style="text;html=1;points=[];align=left;verticalAlign=top;spacingTop=-4;fontSize=14;fontFamily=Verdana" parent="1" vertex="1">
          <mxGeometry x="50" y="45" width="60" height="20" as="geometry" />
        </mxCell>
        <mxCell id="rB62w4w6sOAK7SjoI9b3-6" value="History" style="text;html=1;points=[];align=left;verticalAlign=top;spacingTop=-4;fontSize=14;fontFamily=Verdana" parent="1" vertex="1">
          <mxGeometry x="155" y="45" width="60" height="20" as="geometry" />
        </mxCell>
        <mxCell id="rB62w4w6sOAK7SjoI9b3-7" value="Assets" style="childLayout=tableLayout;recursiveResize=0;strokeColor=#98bf21;fillColor=#A7C942;shadow=1;" parent="1" vertex="1">
          <mxGeometry x="83" y="300" width="940" height="355" as="geometry" />
        </mxCell>
        <mxCell id="rB62w4w6sOAK7SjoI9b3-8" style="shape=tableRow;horizontal=0;startSize=0;swimlaneHead=0;swimlaneBody=0;top=0;left=0;bottom=0;right=0;dropTarget=0;collapsible=0;recursiveResize=0;expand=0;fontStyle=0;strokeColor=inherit;fillColor=#ffffff;" parent="rB62w4w6sOAK7SjoI9b3-7" vertex="1">
          <mxGeometry width="940" height="41" as="geometry" />
        </mxCell>
        <mxCell id="rB62w4w6sOAK7SjoI9b3-9" value="ID" style="connectable=0;recursiveResize=0;strokeColor=inherit;fillColor=#A7C942;align=left;fontStyle=1;fontColor=#FFFFFF;html=1;" parent="rB62w4w6sOAK7SjoI9b3-8" vertex="1">
          <mxGeometry width="65" height="41" as="geometry">
            <mxRectangle width="65" height="41" as="alternateBounds" />
          </mxGeometry>
        </mxCell>
        <mxCell id="rB62w4w6sOAK7SjoI9b3-10" value="Model Used" style="connectable=0;recursiveResize=0;strokeColor=inherit;fillColor=#A7C942;align=left;fontStyle=1;fontColor=#FFFFFF;html=1;" parent="rB62w4w6sOAK7SjoI9b3-8" vertex="1">
          <mxGeometry x="65" width="159" height="41" as="geometry">
            <mxRectangle width="159" height="41" as="alternateBounds" />
          </mxGeometry>
        </mxCell>
        <mxCell id="rB62w4w6sOAK7SjoI9b3-11" value="Time" style="connectable=0;recursiveResize=0;strokeColor=inherit;fillColor=#A7C942;align=left;fontStyle=1;fontColor=#FFFFFF;html=1;" parent="rB62w4w6sOAK7SjoI9b3-8" vertex="1">
          <mxGeometry x="224" width="142" height="41" as="geometry">
            <mxRectangle width="142" height="41" as="alternateBounds" />
          </mxGeometry>
        </mxCell>
        <mxCell id="rB62w4w6sOAK7SjoI9b3-12" value="Predict" style="connectable=0;recursiveResize=0;strokeColor=inherit;fillColor=#A7C942;align=left;fontStyle=1;fontColor=#FFFFFF;html=1;" parent="rB62w4w6sOAK7SjoI9b3-8" vertex="1">
          <mxGeometry x="366" width="224" height="41" as="geometry">
            <mxRectangle width="224" height="41" as="alternateBounds" />
          </mxGeometry>
        </mxCell>
        <mxCell id="rB62w4w6sOAK7SjoI9b3-15" value="Img" style="connectable=0;recursiveResize=0;strokeColor=inherit;fillColor=#A7C942;align=left;fontStyle=1;fontColor=#FFFFFF;html=1;" parent="rB62w4w6sOAK7SjoI9b3-8" vertex="1">
          <mxGeometry x="590" width="214" height="41" as="geometry">
            <mxRectangle width="214" height="41" as="alternateBounds" />
          </mxGeometry>
        </mxCell>
        <mxCell id="rB62w4w6sOAK7SjoI9b3-16" value="Delete Item" style="connectable=0;recursiveResize=0;strokeColor=inherit;fillColor=#A7C942;align=left;fontStyle=1;fontColor=#FFFFFF;html=1;" parent="rB62w4w6sOAK7SjoI9b3-8" vertex="1">
          <mxGeometry x="804" width="136" height="41" as="geometry">
            <mxRectangle width="136" height="41" as="alternateBounds" />
          </mxGeometry>
        </mxCell>
        <mxCell id="rB62w4w6sOAK7SjoI9b3-17" value="" style="shape=tableRow;horizontal=0;startSize=0;swimlaneHead=0;swimlaneBody=0;top=0;left=0;bottom=0;right=0;dropTarget=0;collapsible=0;recursiveResize=0;expand=0;fontStyle=0;strokeColor=inherit;fillColor=#ffffff;" parent="rB62w4w6sOAK7SjoI9b3-7" vertex="1">
          <mxGeometry y="41" width="940" height="40" as="geometry" />
        </mxCell>
        <mxCell id="rB62w4w6sOAK7SjoI9b3-18" style="connectable=0;recursiveResize=0;strokeColor=#6c8ebf;fillColor=#dae8fc;align=left;whiteSpace=wrap;html=1;" parent="rB62w4w6sOAK7SjoI9b3-17" vertex="1">
          <mxGeometry width="65" height="40" as="geometry">
            <mxRectangle width="65" height="40" as="alternateBounds" />
          </mxGeometry>
        </mxCell>
        <mxCell id="rB62w4w6sOAK7SjoI9b3-19" style="connectable=0;recursiveResize=0;strokeColor=#6c8ebf;fillColor=#dae8fc;align=left;whiteSpace=wrap;html=1;" parent="rB62w4w6sOAK7SjoI9b3-17" vertex="1">
          <mxGeometry x="65" width="159" height="40" as="geometry">
            <mxRectangle width="159" height="40" as="alternateBounds" />
          </mxGeometry>
        </mxCell>
        <mxCell id="rB62w4w6sOAK7SjoI9b3-20" value="" style="connectable=0;recursiveResize=0;strokeColor=#6c8ebf;fillColor=#dae8fc;align=left;whiteSpace=wrap;html=1;" parent="rB62w4w6sOAK7SjoI9b3-17" vertex="1">
          <mxGeometry x="224" width="142" height="40" as="geometry">
            <mxRectangle width="142" height="40" as="alternateBounds" />
          </mxGeometry>
        </mxCell>
        <mxCell id="rB62w4w6sOAK7SjoI9b3-21" value="" style="connectable=0;recursiveResize=0;strokeColor=#6c8ebf;fillColor=#dae8fc;align=left;whiteSpace=wrap;html=1;" parent="rB62w4w6sOAK7SjoI9b3-17" vertex="1">
          <mxGeometry x="366" width="224" height="40" as="geometry">
            <mxRectangle width="224" height="40" as="alternateBounds" />
          </mxGeometry>
        </mxCell>
        <mxCell id="rB62w4w6sOAK7SjoI9b3-24" value="" style="connectable=0;recursiveResize=0;strokeColor=#6c8ebf;fillColor=#dae8fc;align=left;whiteSpace=wrap;html=1;" parent="rB62w4w6sOAK7SjoI9b3-17" vertex="1">
          <mxGeometry x="590" width="214" height="40" as="geometry">
            <mxRectangle width="214" height="40" as="alternateBounds" />
          </mxGeometry>
        </mxCell>
        <mxCell id="rB62w4w6sOAK7SjoI9b3-25" style="connectable=0;recursiveResize=0;strokeColor=#6c8ebf;fillColor=#dae8fc;align=left;whiteSpace=wrap;html=1;" parent="rB62w4w6sOAK7SjoI9b3-17" vertex="1">
          <mxGeometry x="804" width="136" height="40" as="geometry">
            <mxRectangle width="136" height="40" as="alternateBounds" />
          </mxGeometry>
        </mxCell>
        <mxCell id="rB62w4w6sOAK7SjoI9b3-26" value="" style="shape=tableRow;horizontal=0;startSize=0;swimlaneHead=0;swimlaneBody=0;top=0;left=0;bottom=0;right=0;dropTarget=0;collapsible=0;recursiveResize=0;expand=0;fontStyle=1;strokeColor=inherit;fillColor=#EAF2D3;" parent="rB62w4w6sOAK7SjoI9b3-7" vertex="1">
          <mxGeometry y="81" width="940" height="39" as="geometry" />
        </mxCell>
        <mxCell id="rB62w4w6sOAK7SjoI9b3-27" style="connectable=0;recursiveResize=0;strokeColor=inherit;fillColor=inherit;whiteSpace=wrap;html=1;align=left;" parent="rB62w4w6sOAK7SjoI9b3-26" vertex="1">
          <mxGeometry width="65" height="39" as="geometry">
            <mxRectangle width="65" height="39" as="alternateBounds" />
          </mxGeometry>
        </mxCell>
        <mxCell id="rB62w4w6sOAK7SjoI9b3-28" style="connectable=0;recursiveResize=0;strokeColor=inherit;fillColor=inherit;whiteSpace=wrap;html=1;align=left;" parent="rB62w4w6sOAK7SjoI9b3-26" vertex="1">
          <mxGeometry x="65" width="159" height="39" as="geometry">
            <mxRectangle width="159" height="39" as="alternateBounds" />
          </mxGeometry>
        </mxCell>
        <mxCell id="rB62w4w6sOAK7SjoI9b3-29" value="" style="connectable=0;recursiveResize=0;strokeColor=inherit;fillColor=inherit;whiteSpace=wrap;html=1;align=left;" parent="rB62w4w6sOAK7SjoI9b3-26" vertex="1">
          <mxGeometry x="224" width="142" height="39" as="geometry">
            <mxRectangle width="142" height="39" as="alternateBounds" />
          </mxGeometry>
        </mxCell>
        <mxCell id="rB62w4w6sOAK7SjoI9b3-30" value="" style="connectable=0;recursiveResize=0;strokeColor=inherit;fillColor=inherit;whiteSpace=wrap;html=1;align=left;" parent="rB62w4w6sOAK7SjoI9b3-26" vertex="1">
          <mxGeometry x="366" width="224" height="39" as="geometry">
            <mxRectangle width="224" height="39" as="alternateBounds" />
          </mxGeometry>
        </mxCell>
        <mxCell id="rB62w4w6sOAK7SjoI9b3-33" value="" style="connectable=0;recursiveResize=0;strokeColor=inherit;fillColor=inherit;whiteSpace=wrap;html=1;align=left;" parent="rB62w4w6sOAK7SjoI9b3-26" vertex="1">
          <mxGeometry x="590" width="214" height="39" as="geometry">
            <mxRectangle width="214" height="39" as="alternateBounds" />
          </mxGeometry>
        </mxCell>
        <mxCell id="rB62w4w6sOAK7SjoI9b3-34" style="connectable=0;recursiveResize=0;strokeColor=inherit;fillColor=inherit;whiteSpace=wrap;html=1;align=left;" parent="rB62w4w6sOAK7SjoI9b3-26" vertex="1">
          <mxGeometry x="804" width="136" height="39" as="geometry">
            <mxRectangle width="136" height="39" as="alternateBounds" />
          </mxGeometry>
        </mxCell>
        <mxCell id="rB62w4w6sOAK7SjoI9b3-35" value="" style="shape=tableRow;horizontal=0;startSize=0;swimlaneHead=0;swimlaneBody=0;top=0;left=0;bottom=0;right=0;dropTarget=0;collapsible=0;recursiveResize=0;expand=0;fontStyle=0;strokeColor=inherit;fillColor=#ffffff;" parent="rB62w4w6sOAK7SjoI9b3-7" vertex="1">
          <mxGeometry y="120" width="940" height="41" as="geometry" />
        </mxCell>
        <mxCell id="rB62w4w6sOAK7SjoI9b3-36" style="connectable=0;recursiveResize=0;strokeColor=#6c8ebf;fillColor=#dae8fc;fontStyle=0;align=left;whiteSpace=wrap;html=1;" parent="rB62w4w6sOAK7SjoI9b3-35" vertex="1">
          <mxGeometry width="65" height="41" as="geometry">
            <mxRectangle width="65" height="41" as="alternateBounds" />
          </mxGeometry>
        </mxCell>
        <mxCell id="rB62w4w6sOAK7SjoI9b3-37" style="connectable=0;recursiveResize=0;strokeColor=#6c8ebf;fillColor=#dae8fc;fontStyle=0;align=left;whiteSpace=wrap;html=1;" parent="rB62w4w6sOAK7SjoI9b3-35" vertex="1">
          <mxGeometry x="65" width="159" height="41" as="geometry">
            <mxRectangle width="159" height="41" as="alternateBounds" />
          </mxGeometry>
        </mxCell>
        <mxCell id="rB62w4w6sOAK7SjoI9b3-38" value="" style="connectable=0;recursiveResize=0;strokeColor=#6c8ebf;fillColor=#dae8fc;fontStyle=0;align=left;whiteSpace=wrap;html=1;" parent="rB62w4w6sOAK7SjoI9b3-35" vertex="1">
          <mxGeometry x="224" width="142" height="41" as="geometry">
            <mxRectangle width="142" height="41" as="alternateBounds" />
          </mxGeometry>
        </mxCell>
        <mxCell id="rB62w4w6sOAK7SjoI9b3-39" value="" style="connectable=0;recursiveResize=0;strokeColor=#6c8ebf;fillColor=#dae8fc;fontStyle=0;align=left;whiteSpace=wrap;html=1;" parent="rB62w4w6sOAK7SjoI9b3-35" vertex="1">
          <mxGeometry x="366" width="224" height="41" as="geometry">
            <mxRectangle width="224" height="41" as="alternateBounds" />
          </mxGeometry>
        </mxCell>
        <mxCell id="rB62w4w6sOAK7SjoI9b3-42" value="" style="connectable=0;recursiveResize=0;strokeColor=#6c8ebf;fillColor=#dae8fc;fontStyle=0;align=left;whiteSpace=wrap;html=1;" parent="rB62w4w6sOAK7SjoI9b3-35" vertex="1">
          <mxGeometry x="590" width="214" height="41" as="geometry">
            <mxRectangle width="214" height="41" as="alternateBounds" />
          </mxGeometry>
        </mxCell>
        <mxCell id="rB62w4w6sOAK7SjoI9b3-43" style="connectable=0;recursiveResize=0;strokeColor=#6c8ebf;fillColor=#dae8fc;fontStyle=0;align=left;whiteSpace=wrap;html=1;" parent="rB62w4w6sOAK7SjoI9b3-35" vertex="1">
          <mxGeometry x="804" width="136" height="41" as="geometry">
            <mxRectangle width="136" height="41" as="alternateBounds" />
          </mxGeometry>
        </mxCell>
        <mxCell id="rB62w4w6sOAK7SjoI9b3-44" value="" style="shape=tableRow;horizontal=0;startSize=0;swimlaneHead=0;swimlaneBody=0;top=0;left=0;bottom=0;right=0;dropTarget=0;collapsible=0;recursiveResize=0;expand=0;fontStyle=1;strokeColor=inherit;fillColor=#EAF2D3;" parent="rB62w4w6sOAK7SjoI9b3-7" vertex="1">
          <mxGeometry y="161" width="940" height="38" as="geometry" />
        </mxCell>
        <mxCell id="rB62w4w6sOAK7SjoI9b3-45" style="connectable=0;recursiveResize=0;strokeColor=inherit;fillColor=inherit;whiteSpace=wrap;html=1;align=left;" parent="rB62w4w6sOAK7SjoI9b3-44" vertex="1">
          <mxGeometry width="65" height="38" as="geometry">
            <mxRectangle width="65" height="38" as="alternateBounds" />
          </mxGeometry>
        </mxCell>
        <mxCell id="rB62w4w6sOAK7SjoI9b3-46" style="connectable=0;recursiveResize=0;strokeColor=inherit;fillColor=inherit;whiteSpace=wrap;html=1;align=left;" parent="rB62w4w6sOAK7SjoI9b3-44" vertex="1">
          <mxGeometry x="65" width="159" height="38" as="geometry">
            <mxRectangle width="159" height="38" as="alternateBounds" />
          </mxGeometry>
        </mxCell>
        <mxCell id="rB62w4w6sOAK7SjoI9b3-47" value="" style="connectable=0;recursiveResize=0;strokeColor=inherit;fillColor=inherit;whiteSpace=wrap;html=1;align=left;" parent="rB62w4w6sOAK7SjoI9b3-44" vertex="1">
          <mxGeometry x="224" width="142" height="38" as="geometry">
            <mxRectangle width="142" height="38" as="alternateBounds" />
          </mxGeometry>
        </mxCell>
        <mxCell id="rB62w4w6sOAK7SjoI9b3-48" value="" style="connectable=0;recursiveResize=0;strokeColor=inherit;fillColor=inherit;whiteSpace=wrap;html=1;align=left;" parent="rB62w4w6sOAK7SjoI9b3-44" vertex="1">
          <mxGeometry x="366" width="224" height="38" as="geometry">
            <mxRectangle width="224" height="38" as="alternateBounds" />
          </mxGeometry>
        </mxCell>
        <mxCell id="rB62w4w6sOAK7SjoI9b3-51" value="" style="connectable=0;recursiveResize=0;strokeColor=inherit;fillColor=inherit;whiteSpace=wrap;html=1;align=left;" parent="rB62w4w6sOAK7SjoI9b3-44" vertex="1">
          <mxGeometry x="590" width="214" height="38" as="geometry">
            <mxRectangle width="214" height="38" as="alternateBounds" />
          </mxGeometry>
        </mxCell>
        <mxCell id="rB62w4w6sOAK7SjoI9b3-52" style="connectable=0;recursiveResize=0;strokeColor=inherit;fillColor=inherit;whiteSpace=wrap;html=1;align=left;" parent="rB62w4w6sOAK7SjoI9b3-44" vertex="1">
          <mxGeometry x="804" width="136" height="38" as="geometry">
            <mxRectangle width="136" height="38" as="alternateBounds" />
          </mxGeometry>
        </mxCell>
        <mxCell id="rB62w4w6sOAK7SjoI9b3-53" style="shape=tableRow;horizontal=0;startSize=0;swimlaneHead=0;swimlaneBody=0;top=0;left=0;bottom=0;right=0;dropTarget=0;collapsible=0;recursiveResize=0;expand=0;fontStyle=1;strokeColor=inherit;fillColor=#EAF2D3;" parent="rB62w4w6sOAK7SjoI9b3-7" vertex="1">
          <mxGeometry y="199" width="940" height="39" as="geometry" />
        </mxCell>
        <mxCell id="rB62w4w6sOAK7SjoI9b3-54" style="connectable=0;recursiveResize=0;strokeColor=#6c8ebf;fillColor=#dae8fc;whiteSpace=wrap;html=1;align=left;" parent="rB62w4w6sOAK7SjoI9b3-53" vertex="1">
          <mxGeometry width="65" height="39" as="geometry">
            <mxRectangle width="65" height="39" as="alternateBounds" />
          </mxGeometry>
        </mxCell>
        <mxCell id="rB62w4w6sOAK7SjoI9b3-55" style="connectable=0;recursiveResize=0;strokeColor=#6c8ebf;fillColor=#dae8fc;whiteSpace=wrap;html=1;align=left;" parent="rB62w4w6sOAK7SjoI9b3-53" vertex="1">
          <mxGeometry x="65" width="159" height="39" as="geometry">
            <mxRectangle width="159" height="39" as="alternateBounds" />
          </mxGeometry>
        </mxCell>
        <mxCell id="rB62w4w6sOAK7SjoI9b3-56" style="connectable=0;recursiveResize=0;strokeColor=#6c8ebf;fillColor=#dae8fc;whiteSpace=wrap;html=1;align=left;" parent="rB62w4w6sOAK7SjoI9b3-53" vertex="1">
          <mxGeometry x="224" width="142" height="39" as="geometry">
            <mxRectangle width="142" height="39" as="alternateBounds" />
          </mxGeometry>
        </mxCell>
        <mxCell id="rB62w4w6sOAK7SjoI9b3-57" style="connectable=0;recursiveResize=0;strokeColor=#6c8ebf;fillColor=#dae8fc;whiteSpace=wrap;html=1;align=left;" parent="rB62w4w6sOAK7SjoI9b3-53" vertex="1">
          <mxGeometry x="366" width="224" height="39" as="geometry">
            <mxRectangle width="224" height="39" as="alternateBounds" />
          </mxGeometry>
        </mxCell>
        <mxCell id="rB62w4w6sOAK7SjoI9b3-60" style="connectable=0;recursiveResize=0;strokeColor=#6c8ebf;fillColor=#dae8fc;whiteSpace=wrap;html=1;align=left;" parent="rB62w4w6sOAK7SjoI9b3-53" vertex="1">
          <mxGeometry x="590" width="214" height="39" as="geometry">
            <mxRectangle width="214" height="39" as="alternateBounds" />
          </mxGeometry>
        </mxCell>
        <mxCell id="rB62w4w6sOAK7SjoI9b3-61" style="connectable=0;recursiveResize=0;strokeColor=#6c8ebf;fillColor=#dae8fc;whiteSpace=wrap;html=1;align=left;" parent="rB62w4w6sOAK7SjoI9b3-53" vertex="1">
          <mxGeometry x="804" width="136" height="39" as="geometry">
            <mxRectangle width="136" height="39" as="alternateBounds" />
          </mxGeometry>
        </mxCell>
        <mxCell id="rB62w4w6sOAK7SjoI9b3-62" style="shape=tableRow;horizontal=0;startSize=0;swimlaneHead=0;swimlaneBody=0;top=0;left=0;bottom=0;right=0;dropTarget=0;collapsible=0;recursiveResize=0;expand=0;fontStyle=1;strokeColor=inherit;fillColor=#EAF2D3;" parent="rB62w4w6sOAK7SjoI9b3-7" vertex="1">
          <mxGeometry y="238" width="940" height="39" as="geometry" />
        </mxCell>
        <mxCell id="rB62w4w6sOAK7SjoI9b3-63" style="connectable=0;recursiveResize=0;strokeColor=inherit;fillColor=inherit;whiteSpace=wrap;html=1;align=left;" parent="rB62w4w6sOAK7SjoI9b3-62" vertex="1">
          <mxGeometry width="65" height="39" as="geometry">
            <mxRectangle width="65" height="39" as="alternateBounds" />
          </mxGeometry>
        </mxCell>
        <mxCell id="rB62w4w6sOAK7SjoI9b3-64" style="connectable=0;recursiveResize=0;strokeColor=inherit;fillColor=inherit;whiteSpace=wrap;html=1;align=left;" parent="rB62w4w6sOAK7SjoI9b3-62" vertex="1">
          <mxGeometry x="65" width="159" height="39" as="geometry">
            <mxRectangle width="159" height="39" as="alternateBounds" />
          </mxGeometry>
        </mxCell>
        <mxCell id="rB62w4w6sOAK7SjoI9b3-65" style="connectable=0;recursiveResize=0;strokeColor=inherit;fillColor=inherit;whiteSpace=wrap;html=1;align=left;" parent="rB62w4w6sOAK7SjoI9b3-62" vertex="1">
          <mxGeometry x="224" width="142" height="39" as="geometry">
            <mxRectangle width="142" height="39" as="alternateBounds" />
          </mxGeometry>
        </mxCell>
        <mxCell id="rB62w4w6sOAK7SjoI9b3-66" style="connectable=0;recursiveResize=0;strokeColor=inherit;fillColor=inherit;whiteSpace=wrap;html=1;align=left;" parent="rB62w4w6sOAK7SjoI9b3-62" vertex="1">
          <mxGeometry x="366" width="224" height="39" as="geometry">
            <mxRectangle width="224" height="39" as="alternateBounds" />
          </mxGeometry>
        </mxCell>
        <mxCell id="rB62w4w6sOAK7SjoI9b3-69" style="connectable=0;recursiveResize=0;strokeColor=inherit;fillColor=inherit;whiteSpace=wrap;html=1;align=left;" parent="rB62w4w6sOAK7SjoI9b3-62" vertex="1">
          <mxGeometry x="590" width="214" height="39" as="geometry">
            <mxRectangle width="214" height="39" as="alternateBounds" />
          </mxGeometry>
        </mxCell>
        <mxCell id="rB62w4w6sOAK7SjoI9b3-70" style="connectable=0;recursiveResize=0;strokeColor=inherit;fillColor=inherit;whiteSpace=wrap;html=1;align=left;" parent="rB62w4w6sOAK7SjoI9b3-62" vertex="1">
          <mxGeometry x="804" width="136" height="39" as="geometry">
            <mxRectangle width="136" height="39" as="alternateBounds" />
          </mxGeometry>
        </mxCell>
        <mxCell id="rB62w4w6sOAK7SjoI9b3-71" style="shape=tableRow;horizontal=0;startSize=0;swimlaneHead=0;swimlaneBody=0;top=0;left=0;bottom=0;right=0;dropTarget=0;collapsible=0;recursiveResize=0;expand=0;fontStyle=1;strokeColor=inherit;fillColor=#EAF2D3;" parent="rB62w4w6sOAK7SjoI9b3-7" vertex="1">
          <mxGeometry y="277" width="940" height="39" as="geometry" />
        </mxCell>
        <mxCell id="rB62w4w6sOAK7SjoI9b3-72" style="connectable=0;recursiveResize=0;strokeColor=#6c8ebf;fillColor=#dae8fc;whiteSpace=wrap;html=1;align=left;" parent="rB62w4w6sOAK7SjoI9b3-71" vertex="1">
          <mxGeometry width="65" height="39" as="geometry">
            <mxRectangle width="65" height="39" as="alternateBounds" />
          </mxGeometry>
        </mxCell>
        <mxCell id="rB62w4w6sOAK7SjoI9b3-73" style="connectable=0;recursiveResize=0;strokeColor=#6c8ebf;fillColor=#dae8fc;whiteSpace=wrap;html=1;align=left;" parent="rB62w4w6sOAK7SjoI9b3-71" vertex="1">
          <mxGeometry x="65" width="159" height="39" as="geometry">
            <mxRectangle width="159" height="39" as="alternateBounds" />
          </mxGeometry>
        </mxCell>
        <mxCell id="rB62w4w6sOAK7SjoI9b3-74" style="connectable=0;recursiveResize=0;strokeColor=#6c8ebf;fillColor=#dae8fc;whiteSpace=wrap;html=1;align=left;" parent="rB62w4w6sOAK7SjoI9b3-71" vertex="1">
          <mxGeometry x="224" width="142" height="39" as="geometry">
            <mxRectangle width="142" height="39" as="alternateBounds" />
          </mxGeometry>
        </mxCell>
        <mxCell id="rB62w4w6sOAK7SjoI9b3-75" style="connectable=0;recursiveResize=0;strokeColor=#6c8ebf;fillColor=#dae8fc;whiteSpace=wrap;html=1;align=left;" parent="rB62w4w6sOAK7SjoI9b3-71" vertex="1">
          <mxGeometry x="366" width="224" height="39" as="geometry">
            <mxRectangle width="224" height="39" as="alternateBounds" />
          </mxGeometry>
        </mxCell>
        <mxCell id="rB62w4w6sOAK7SjoI9b3-78" style="connectable=0;recursiveResize=0;strokeColor=#6c8ebf;fillColor=#dae8fc;whiteSpace=wrap;html=1;align=left;" parent="rB62w4w6sOAK7SjoI9b3-71" vertex="1">
          <mxGeometry x="590" width="214" height="39" as="geometry">
            <mxRectangle width="214" height="39" as="alternateBounds" />
          </mxGeometry>
        </mxCell>
        <mxCell id="rB62w4w6sOAK7SjoI9b3-79" style="connectable=0;recursiveResize=0;strokeColor=#6c8ebf;fillColor=#dae8fc;whiteSpace=wrap;html=1;align=left;" parent="rB62w4w6sOAK7SjoI9b3-71" vertex="1">
          <mxGeometry x="804" width="136" height="39" as="geometry">
            <mxRectangle width="136" height="39" as="alternateBounds" />
          </mxGeometry>
        </mxCell>
        <mxCell id="rB62w4w6sOAK7SjoI9b3-80" style="shape=tableRow;horizontal=0;startSize=0;swimlaneHead=0;swimlaneBody=0;top=0;left=0;bottom=0;right=0;dropTarget=0;collapsible=0;recursiveResize=0;expand=0;fontStyle=1;strokeColor=inherit;fillColor=#EAF2D3;" parent="rB62w4w6sOAK7SjoI9b3-7" vertex="1">
          <mxGeometry y="316" width="940" height="39" as="geometry" />
        </mxCell>
        <mxCell id="rB62w4w6sOAK7SjoI9b3-81" style="connectable=0;recursiveResize=0;strokeColor=inherit;fillColor=inherit;whiteSpace=wrap;html=1;align=left;" parent="rB62w4w6sOAK7SjoI9b3-80" vertex="1">
          <mxGeometry width="65" height="39" as="geometry">
            <mxRectangle width="65" height="39" as="alternateBounds" />
          </mxGeometry>
        </mxCell>
        <mxCell id="rB62w4w6sOAK7SjoI9b3-82" style="connectable=0;recursiveResize=0;strokeColor=inherit;fillColor=inherit;whiteSpace=wrap;html=1;align=left;" parent="rB62w4w6sOAK7SjoI9b3-80" vertex="1">
          <mxGeometry x="65" width="159" height="39" as="geometry">
            <mxRectangle width="159" height="39" as="alternateBounds" />
          </mxGeometry>
        </mxCell>
        <mxCell id="rB62w4w6sOAK7SjoI9b3-83" style="connectable=0;recursiveResize=0;strokeColor=inherit;fillColor=inherit;whiteSpace=wrap;html=1;align=left;" parent="rB62w4w6sOAK7SjoI9b3-80" vertex="1">
          <mxGeometry x="224" width="142" height="39" as="geometry">
            <mxRectangle width="142" height="39" as="alternateBounds" />
          </mxGeometry>
        </mxCell>
        <mxCell id="rB62w4w6sOAK7SjoI9b3-84" style="connectable=0;recursiveResize=0;strokeColor=inherit;fillColor=inherit;whiteSpace=wrap;html=1;align=left;" parent="rB62w4w6sOAK7SjoI9b3-80" vertex="1">
          <mxGeometry x="366" width="224" height="39" as="geometry">
            <mxRectangle width="224" height="39" as="alternateBounds" />
          </mxGeometry>
        </mxCell>
        <mxCell id="rB62w4w6sOAK7SjoI9b3-87" style="connectable=0;recursiveResize=0;strokeColor=inherit;fillColor=inherit;whiteSpace=wrap;html=1;align=left;" parent="rB62w4w6sOAK7SjoI9b3-80" vertex="1">
          <mxGeometry x="590" width="214" height="39" as="geometry">
            <mxRectangle width="214" height="39" as="alternateBounds" />
          </mxGeometry>
        </mxCell>
        <mxCell id="rB62w4w6sOAK7SjoI9b3-88" style="connectable=0;recursiveResize=0;strokeColor=inherit;fillColor=inherit;whiteSpace=wrap;html=1;align=left;" parent="rB62w4w6sOAK7SjoI9b3-80" vertex="1">
          <mxGeometry x="804" width="136" height="39" as="geometry">
            <mxRectangle width="136" height="39" as="alternateBounds" />
          </mxGeometry>
        </mxCell>
        <mxCell id="rB62w4w6sOAK7SjoI9b3-89" value="Delete" style="html=1;shadow=0;dashed=0;shape=mxgraph.bootstrap.rrect;rSize=5;strokeColor=#b85450;strokeWidth=1;fillColor=#f8cecc;whiteSpace=wrap;align=center;verticalAlign=middle;spacingLeft=0;fontStyle=0;fontSize=16;spacing=5;" parent="1" vertex="1">
          <mxGeometry x="916" y="345" width="80" height="30" as="geometry" />
        </mxCell>
        <mxCell id="rB62w4w6sOAK7SjoI9b3-90" value="Delete" style="html=1;shadow=0;dashed=0;shape=mxgraph.bootstrap.rrect;rSize=5;strokeColor=#b85450;strokeWidth=1;fillColor=#f8cecc;whiteSpace=wrap;align=center;verticalAlign=middle;spacingLeft=0;fontStyle=0;fontSize=16;spacing=5;" parent="1" vertex="1">
          <mxGeometry x="916" y="384" width="80" height="30" as="geometry" />
        </mxCell>
        <mxCell id="rB62w4w6sOAK7SjoI9b3-91" value="Delete" style="html=1;shadow=0;dashed=0;shape=mxgraph.bootstrap.rrect;rSize=5;strokeColor=#b85450;strokeWidth=1;fillColor=#f8cecc;whiteSpace=wrap;align=center;verticalAlign=middle;spacingLeft=0;fontStyle=0;fontSize=16;spacing=5;" parent="1" vertex="1">
          <mxGeometry x="916" y="424" width="80" height="30" as="geometry" />
        </mxCell>
        <mxCell id="rB62w4w6sOAK7SjoI9b3-92" value="Delete" style="html=1;shadow=0;dashed=0;shape=mxgraph.bootstrap.rrect;rSize=5;strokeColor=#b85450;strokeWidth=1;fillColor=#f8cecc;whiteSpace=wrap;align=center;verticalAlign=middle;spacingLeft=0;fontStyle=0;fontSize=16;spacing=5;" parent="1" vertex="1">
          <mxGeometry x="916" y="465" width="80" height="30" as="geometry" />
        </mxCell>
        <mxCell id="rB62w4w6sOAK7SjoI9b3-93" value="Delete" style="html=1;shadow=0;dashed=0;shape=mxgraph.bootstrap.rrect;rSize=5;strokeColor=#b85450;strokeWidth=1;fillColor=#f8cecc;whiteSpace=wrap;align=center;verticalAlign=middle;spacingLeft=0;fontStyle=0;fontSize=16;spacing=5;" parent="1" vertex="1">
          <mxGeometry x="916" y="505" width="80" height="30" as="geometry" />
        </mxCell>
        <mxCell id="rB62w4w6sOAK7SjoI9b3-94" value="Delete" style="html=1;shadow=0;dashed=0;shape=mxgraph.bootstrap.rrect;rSize=5;strokeColor=#b85450;strokeWidth=1;fillColor=#f8cecc;whiteSpace=wrap;align=center;verticalAlign=middle;spacingLeft=0;fontStyle=0;fontSize=16;spacing=5;" parent="1" vertex="1">
          <mxGeometry x="916" y="544" width="80" height="30" as="geometry" />
        </mxCell>
        <mxCell id="rB62w4w6sOAK7SjoI9b3-95" value="Delete" style="html=1;shadow=0;dashed=0;shape=mxgraph.bootstrap.rrect;rSize=5;strokeColor=#b85450;strokeWidth=1;fillColor=#f8cecc;whiteSpace=wrap;align=center;verticalAlign=middle;spacingLeft=0;fontStyle=0;fontSize=16;spacing=5;" parent="1" vertex="1">
          <mxGeometry x="916" y="584" width="80" height="30" as="geometry" />
        </mxCell>
        <mxCell id="rB62w4w6sOAK7SjoI9b3-96" value="Delete" style="html=1;shadow=0;dashed=0;shape=mxgraph.bootstrap.rrect;rSize=5;strokeColor=#b85450;strokeWidth=1;fillColor=#f8cecc;whiteSpace=wrap;align=center;verticalAlign=middle;spacingLeft=0;fontStyle=0;fontSize=16;spacing=5;" parent="1" vertex="1">
          <mxGeometry x="916" y="625" width="80" height="30" as="geometry" />
        </mxCell>
        <mxCell id="rB62w4w6sOAK7SjoI9b3-97" value="Account&lt;br&gt;" style="text;html=1;points=[];align=left;verticalAlign=top;spacingTop=-4;fontSize=14;fontFamily=Verdana" parent="1" vertex="1">
          <mxGeometry x="980" y="40" width="60" height="20" as="geometry" />
        </mxCell>
        <mxCell id="Gq9GmzuMoRLAXxAavDCt-1" value="Bulk" style="text;html=1;points=[];align=left;verticalAlign=top;spacingTop=-4;fontSize=14;fontFamily=Verdana" vertex="1" parent="1">
          <mxGeometry x="110" y="45" width="60" height="20" as="geometry" />
        </mxCell>
        <mxCell id="Gq9GmzuMoRLAXxAavDCt-2" value="Search" style="rounded=1;whiteSpace=wrap;html=1;" vertex="1" parent="1">
          <mxGeometry x="485" y="270" width="130" height="20" as="geometry" />
        </mxCell>
      </root>
    </mxGraphModel>
  </diagram>
</mxfile>
